[Header]                  # Header keywords are followed by a single value
FileType htr              # single word string
DataType HTRS             # Hierarchical translations followed by rotations and Scale
FileVersion 1             # integer
NumSegments   22        # integer
NumFrames  7          # integer
DataFrameRate    60      # integer
EulerRotationOrder ZYX    # one word string
CalibrationUnits mm   # one word string
RotationUnits Degrees     # one word string
GlobalAxisofGravity Y        # character, X or Y or Z
BoneLengthAxis Y
ScaleFactor 1.0000
[SegmentNames&Hierarchy]
#CHILD         PARENT
LowerTorso	GLOBAL
MidTorso1	LowerTorso
MidTorso2	MidTorso1
UpperTorso	MidTorso2
Neck	UpperTorso
Head	Neck
LCollar	UpperTorso
LUpArm	LCollar
LLowArm	LUpArm
LHand	LLowArm
RCollar	UpperTorso
RUpArm	RCollar
RLowArm	RUpArm
RHand	RLowArm
RThigh	LowerTorso
RLowLeg	RThigh
RFoot	RLowLeg
RToe	RFoot
LThigh	LowerTorso
LLowLeg	LThigh
LFoot	LLowLeg
LToe	LFoot
[BasePosition]
#SegmentName Tx, Ty, Tz, Rx, Ry, Rz, BoneLength
LowerTorso	245.857281	950.546486	248.637529	3.098927	-0.002210	0.042162	59.711333	
MidTorso1	0.000000	59.711333	0.000000	12.937915	-0.002675	-0.030860	59.789096	
MidTorso2	0.000000	59.789096	0.000000	-8.588562	0.003459	0.011437	83.428957	
UpperTorso	0.000000	83.428957	0.000000	-7.932331	-0.001012	-0.030752	241.957510	
Neck	0.000000	241.957510	0.000000	-0.094097	0.000027	0.097203	231.829248	
Head	0.000000	231.829248	0.000000	90.077927	-0.000108	-0.089730	91.574582	
LCollar	6.813599	237.360039	0.023153	2.387721	-0.015547	-90.013255	183.371476	
LUpArm	0.000000	183.371476	0.000000	5.326590	-0.698152	6.338799	275.550262	
LLowArm	0.000000	275.550262	0.000000	0.023606	-0.000027	0.019344	209.826044	
LHand	0.000000	209.826044	0.000000	0.056212	0.000012	-0.012212	145.298309	
RCollar	-7.320367	237.102711	-0.039007	12.450709	0.004248	90.115141	167.861514	
RUpArm	0.000000	167.861514	0.000000	-6.122028	-0.820027	-2.646363	291.470253	
RLowArm	0.000000	291.470253	0.000000	0.000001	0.000000	-0.000274	217.757286	
RHand	0.000000	217.757286	0.000000	0.000373	0.000000	0.000511	137.536656	
RThigh	-124.450736	-52.205152	84.621319	5.924306	0.309605	177.207098	421.029795	
RLowLeg	0.000000	421.029795	0.000000	-15.759515	-0.017515	3.120486	365.105663	
RFoot	0.000000	365.105663	0.000000	55.897303	0.149984	-4.373210	148.323736	
RToe	0.000000	148.323736	0.000000	45.100933	2.167436	3.449341	115.306227	
LThigh	124.374466	-52.388373	84.621456	5.928259	-0.221338	-178.140447	426.796764	
LLowLeg	0.000000	426.796764	0.000000	-15.759694	0.017551	-3.120303	361.153822	
LFoot	0.000000	361.153822	0.000000	55.897848	-0.150027	4.373120	146.718976	
LToe	0.000000	146.718976	0.000000	45.100748	-2.167253	-3.449489	114.060784	
#Beginning of Data. Separated by tabs
[LowerTorso]
#Fr     Tx      Ty      Tz      Rx      Ry      Rz      SF
357	-154.689911	2.393693	521.705139	-1.444091	34.034893	-5.809483	1.000000	
358	-150.517639	-0.197376	517.722961	-1.701722	34.577068	-6.119480	1.000000	
359	-146.090439	-2.910773	512.701660	-1.826846	34.993183	-6.277980	1.000000	
360	-141.490005	-5.610977	506.615753	-1.822079	35.273224	-6.265736	1.000000	
361	-136.881195	-8.143648	499.403687	-1.648553	35.438072	-6.086587	1.000000	
362	-132.521942	-10.374006	491.128662	-1.236903	35.517284	-5.735531	1.000000	
363	-128.677322	-12.218044	482.079956	-0.556199	35.524162	-5.239201	1.000000	
[MidTorso1]
#Fr     Tx      Ty      Tz      Rx      Ry      Rz      SF
357	0.000000	0.000000	0.000000	2.375201	-0.365687	1.419938	1.000000	
358	0.000000	0.000000	0.000000	2.260386	-0.584629	1.431680	1.000000	
359	0.000000	0.000000	0.000000	2.211305	-0.799963	1.397787	1.000000	
360	0.000000	0.000000	0.000000	2.238402	-0.996509	1.312394	1.000000	
361	0.000000	0.000000	0.000000	2.334960	-1.170044	1.180648	1.000000	
362	0.000000	0.000000	0.000000	2.477505	-1.328987	1.000478	1.000000	
363	0.000000	0.000000	0.000000	2.637814	-1.473908	0.774863	1.000000	
[MidTorso2]
#Fr     Tx      Ty      Tz      Rx      Ry      Rz      SF
357	0.000000	0.000000	0.000000	2.372818	-0.574108	1.349486	1.000000	
358	0.000000	0.000000	0.000000	2.258307	-0.792326	1.328405	1.000000	
359	0.000000	0.000000	0.000000	2.209802	-1.000175	1.262734	1.000000	
360	0.000000	0.000000	0.000000	2.237691	-1.181775	1.148941	1.000000	
361	0.000000	0.000000	0.000000	2.335160	-1.333712	0.992745	1.000000	
362	0.000000	0.000000	0.000000	2.478682	-1.464000	0.790843	1.000000	
363	0.000000	0.000000	0.000000	2.639942	-1.573638	0.546097	1.000000	
[UpperTorso]
#Fr     Tx      Ty      Tz      Rx      Ry      Rz      SF
357	0.000000	0.000000	0.000000	2.371626	-0.753571	1.257525	1.000000	
358	0.000000	0.000000	0.000000	2.257747	-0.966853	1.206520	1.000000	
359	0.000000	0.000000	0.000000	2.210068	-1.163678	1.112782	1.000000	
360	0.000000	0.000000	0.000000	2.238885	-1.327824	0.975004	1.000000	
361	0.000000	0.000000	0.000000	2.337276	-1.456702	0.799323	1.000000	
362	0.000000	0.000000	0.000000	2.481673	-1.557805	0.581364	1.000000	
363	0.000000	0.000000	0.000000	2.643676	-1.632532	0.323823	1.000000	
[Neck]
#Fr     Tx      Ty      Tz      Rx      Ry      Rz      SF
357	0.000000	0.000000	0.000000	5.633587	-16.365499	-0.618890	1.000000	
358	0.000000	0.000000	0.000000	5.587216	-16.296211	-0.064563	1.000000	
359	0.000000	0.000000	0.000000	5.242098	-16.156570	0.530782	1.000000	
360	0.000000	0.000000	0.000000	4.593466	-16.045645	1.066755	1.000000	
361	0.000000	0.000000	0.000000	3.607613	-16.040648	1.456749	1.000000	
362	0.000000	0.000000	0.000000	2.284702	-16.170010	1.682205	1.000000	
363	0.000000	0.000000	0.000000	0.694546	-16.402176	1.770141	1.000000	
[Head]
#Fr     Tx      Ty      Tz      Rx      Ry      Rz      SF
357	0.000000	0.000000	0.000000	0.592298	5.164721	0.087981	1.000000	
358	0.000000	0.000000	0.000000	0.518361	5.162769	0.115229	1.000000	
359	0.000000	0.000000	0.000000	0.374585	5.161179	0.132807	1.000000	
360	0.000000	0.000000	0.000000	0.191007	5.152755	0.147241	1.000000	
361	0.000000	0.000000	0.000000	0.056493	5.156887	0.173406	1.000000	
362	0.000000	0.000000	0.000000	0.095342	5.194402	0.229797	1.000000	
363	0.000000	0.000000	0.000000	0.394009	5.291772	0.322944	1.000000	
[LCollar]
#Fr     Tx      Ty      Tz      Rx      Ry      Rz      SF
357	0.000000	0.000000	0.000000	7.099405	1.388864	-11.012440	1.000000	
358	0.000000	0.000000	0.000000	7.203778	1.350806	-10.564487	1.000000	
359	0.000000	0.000000	0.000000	7.266510	1.296553	-10.062523	1.000000	
360	0.000000	0.000000	0.000000	7.310666	1.240732	-9.579923	1.000000	
361	0.000000	0.000000	0.000000	7.350256	1.195646	-9.188529	1.000000	
362	0.000000	0.000000	0.000000	7.382880	1.162416	-8.898088	1.000000	
363	0.000000	0.000000	0.000000	7.418397	1.139295	-8.682286	1.000000	
[LUpArm]
#Fr     Tx      Ty      Tz      Rx      Ry      Rz      SF
357	0.000000	0.000000	0.000000	53.857063	19.620781	-41.753777	1.000000	
358	0.000000	0.000000	0.000000	53.751247	20.209131	-42.124519	1.000000	
359	0.000000	0.000000	0.000000	53.805008	20.713421	-42.303982	1.000000	
360	0.000000	0.000000	0.000000	54.064522	21.061462	-42.197605	1.000000	
361	0.000000	0.000000	0.000000	54.547001	21.171478	-41.770126	1.000000	
362	0.000000	0.000000	0.000000	55.209797	20.997545	-41.056103	1.000000	
363	0.000000	0.000000	0.000000	55.968071	20.540060	-40.145664	1.000000	
[LLowArm]
#Fr     Tx      Ty      Tz      Rx      Ry      Rz      SF
357	0.000000	0.000000	0.000000	116.428314	-0.010975	-0.017828	1.000000	
358	0.000000	0.000000	0.000000	116.507317	-0.010967	-0.017843	1.000000	
359	0.000000	0.000000	0.000000	116.496353	-0.010968	-0.017841	1.000000	
360	0.000000	0.000000	0.000000	116.383446	-0.010979	-0.017820	1.000000	
361	0.000000	0.000000	0.000000	116.206551	-0.010996	-0.017786	1.000000	
362	0.000000	0.000000	0.000000	116.034180	-0.011013	-0.017752	1.000000	
363	0.000000	0.000000	0.000000	115.932159	-0.011022	-0.017733	1.000000	
[LHand]
#Fr     Tx      Ty      Tz      Rx      Ry      Rz      SF
357	0.000000	0.000000	0.000000	5.897744	11.235910	7.132719	1.000000	
358	0.000000	0.000000	0.000000	5.891134	12.523558	7.306577	1.000000	
359	0.000000	0.000000	0.000000	5.902414	13.558304	7.500280	1.000000	
360	0.000000	0.000000	0.000000	5.957930	14.109992	7.770638	1.000000	
361	0.000000	0.000000	0.000000	6.015606	14.363386	8.063257	1.000000	
362	0.000000	0.000000	0.000000	6.030159	14.701798	8.304918	1.000000	
363	0.000000	0.000000	0.000000	6.024041	15.325338	8.514784	1.000000	
[RCollar]
#Fr     Tx      Ty      Tz      Rx      Ry      Rz      SF
357	0.000000	0.000000	0.000000	8.072876	-2.602990	17.754976	1.000000	
358	0.000000	0.000000	0.000000	8.155372	-2.653166	17.901518	1.000000	
359	0.000000	0.000000	0.000000	8.387974	-2.742186	17.976402	1.000000	
360	0.000000	0.000000	0.000000	8.719794	-2.843501	17.923859	1.000000	
361	0.000000	0.000000	0.000000	9.091370	-2.926395	17.695303	1.000000	
362	0.000000	0.000000	0.000000	9.443752	-2.964718	17.273344	1.000000	
363	0.000000	0.000000	0.000000	9.763884	-2.960694	16.707750	1.000000	
[RUpArm]
#Fr     Tx      Ty      Tz      Rx      Ry      Rz      SF
357	0.000000	0.000000	0.000000	29.868773	22.100574	24.552614	1.000000	
358	0.000000	0.000000	0.000000	30.824085	24.011002	24.952919	1.000000	
359	0.000000	0.000000	0.000000	31.691788	25.953842	25.352386	1.000000	
360	0.000000	0.000000	0.000000	32.500519	27.909771	25.859648	1.000000	
361	0.000000	0.000000	0.000000	33.298992	29.828901	26.560659	1.000000	
362	0.000000	0.000000	0.000000	34.174278	31.677687	27.521914	1.000000	
363	0.000000	0.000000	0.000000	35.156048	33.442654	28.739887	1.000000	
[RLowArm]
#Fr     Tx      Ty      Tz      Rx      Ry      Rz      SF
357	0.000000	0.000000	0.000000	80.957672	0.000176	0.000117	1.000000	
358	0.000000	0.000000	0.000000	84.058296	0.000178	0.000125	1.000000	
359	0.000000	0.000000	0.000000	87.230621	0.000180	0.000134	1.000000	
360	0.000000	0.000000	0.000000	90.446472	0.000181	0.000143	1.000000	
361	0.000000	0.000000	0.000000	93.664680	0.000182	0.000152	1.000000	
362	0.000000	0.000000	0.000000	96.882103	0.000182	0.000161	1.000000	
363	0.000000	0.000000	0.000000	100.084000	0.000182	0.000171	1.000000	
[RHand]
#Fr     Tx      Ty      Tz      Rx      Ry      Rz      SF
357	0.000000	0.000000	0.000000	-6.120164	-1.789527	-15.610516	1.000000	
358	0.000000	0.000000	0.000000	-6.730527	-1.445604	-15.539733	1.000000	
359	0.000000	0.000000	0.000000	-7.332207	-1.481508	-15.872981	1.000000	
360	0.000000	0.000000	0.000000	-7.722981	-1.938583	-16.589808	1.000000	
361	0.000000	0.000000	0.000000	-7.861571	-2.661164	-17.448549	1.000000	
362	0.000000	0.000000	0.000000	-7.856961	-3.516314	-18.134226	1.000000	
363	0.000000	0.000000	0.000000	-7.967758	-4.437522	-18.416767	1.000000	
[RThigh]
#Fr     Tx      Ty      Tz      Rx      Ry      Rz      SF
357	0.000000	0.000000	0.000000	2.737684	30.203871	3.554504	1.000000	
358	0.000000	0.000000	0.000000	3.741601	30.608685	3.288128	1.000000	
359	0.000000	0.000000	0.000000	5.282345	31.051746	2.864595	1.000000	
360	0.000000	0.000000	0.000000	7.406962	31.575251	2.271982	1.000000	
361	0.000000	0.000000	0.000000	10.230105	32.251453	1.585630	1.000000	
362	0.000000	0.000000	0.000000	13.843512	33.117043	0.938783	1.000000	
363	0.000000	0.000000	0.000000	18.213686	34.043186	0.495347	1.000000	
[RLowLeg]
#Fr     Tx      Ty      Tz      Rx      Ry      Rz      SF
357	0.000000	0.000000	0.000000	-8.353009	0.000006	-0.000001	1.000000	
358	0.000000	0.000000	0.000000	-10.630185	0.000008	-0.000002	1.000000	
359	0.000000	0.000000	0.000000	-13.722525	0.000010	-0.000003	1.000000	
360	0.000000	0.000000	0.000000	-17.628231	0.000013	-0.000004	1.000000	
361	0.000000	0.000000	0.000000	-22.261705	0.000016	-0.000006	1.000000	
362	0.000000	0.000000	0.000000	-27.414196	0.000019	-0.000008	1.000000	
363	0.000000	0.000000	0.000000	-32.735889	0.000022	-0.000010	1.000000	
[RFoot]
#Fr     Tx      Ty      Tz      Rx      Ry      Rz      SF
357	0.000000	0.000000	0.000000	-3.337842	8.963662	-3.786641	1.000000	
358	0.000000	0.000000	0.000000	-2.510326	9.975695	-3.531423	1.000000	
359	0.000000	0.000000	0.000000	-1.766279	11.079484	-2.927866	1.000000	
360	0.000000	0.000000	0.000000	-1.436992	12.203196	-2.010835	1.000000	
361	0.000000	0.000000	0.000000	-1.873374	13.226761	-0.981806	1.000000	
362	0.000000	0.000000	0.000000	-3.279228	13.996285	-0.162909	1.000000	
363	0.000000	0.000000	0.000000	-5.498935	14.416635	0.105508	1.000000	
[RToe]
#Fr     Tx      Ty      Tz      Rx      Ry      Rz      SF
357	0.000000	0.000000	0.000000	5.517859	0.000002	0.000003	1.000000	
358	0.000000	0.000000	0.000000	5.222228	0.000002	0.000003	1.000000	
359	0.000000	0.000000	0.000000	5.040381	0.000002	0.000003	1.000000	
360	0.000000	0.000000	0.000000	5.019337	0.000002	0.000002	1.000000	
361	0.000000	0.000000	0.000000	5.104908	0.000002	0.000003	1.000000	
362	0.000000	0.000000	0.000000	5.184838	0.000002	0.000003	1.000000	
363	0.000000	0.000000	0.000000	5.062023	0.000002	0.000003	1.000000	
[LThigh]
#Fr     Tx      Ty      Tz      Rx      Ry      Rz      SF
357	0.000000	0.000000	0.000000	4.499900	-13.427556	8.682352	1.000000	
358	0.000000	0.000000	0.000000	4.031237	-12.605082	8.117489	1.000000	
359	0.000000	0.000000	0.000000	3.736872	-12.602402	7.435208	1.000000	
360	0.000000	0.000000	0.000000	3.519732	-13.237997	6.698235	1.000000	
361	0.000000	0.000000	0.000000	3.399389	-14.095493	5.909068	1.000000	
362	0.000000	0.000000	0.000000	3.466981	-14.842253	5.023936	1.000000	
363	0.000000	0.000000	0.000000	3.793165	-15.422580	4.024715	1.000000	
[LLowLeg]
#Fr     Tx      Ty      Tz      Rx      Ry      Rz      SF
357	0.000000	0.000000	0.000000	-25.064331	0.000012	-0.000003	1.000000	
358	0.000000	0.000000	0.000000	-23.987116	0.000011	-0.000002	1.000000	
359	0.000000	0.000000	0.000000	-23.273777	0.000011	-0.000002	1.000000	
360	0.000000	0.000000	0.000000	-22.730026	0.000011	-0.000002	1.000000	
361	0.000000	0.000000	0.000000	-22.226421	0.000010	-0.000002	1.000000	
362	0.000000	0.000000	0.000000	-21.735102	0.000010	-0.000002	1.000000	
363	0.000000	0.000000	0.000000	-21.263968	0.000010	-0.000002	1.000000	
[LFoot]
#Fr     Tx      Ty      Tz      Rx      Ry      Rz      SF
357	0.000000	0.000000	0.000000	-1.917680	-10.454414	0.567046	1.000000	
358	0.000000	0.000000	0.000000	-1.735801	-11.207885	1.443263	1.000000	
359	0.000000	0.000000	0.000000	-1.119422	-11.543139	2.468728	1.000000	
360	0.000000	0.000000	0.000000	-0.205376	-11.350386	3.356821	1.000000	
361	0.000000	0.000000	0.000000	0.817278	-10.669483	3.929744	1.000000	
362	0.000000	0.000000	0.000000	1.802373	-9.596617	4.155618	1.000000	
363	0.000000	0.000000	0.000000	2.685228	-8.304339	4.112487	1.000000	
[LToe]
#Fr     Tx      Ty      Tz      Rx      Ry      Rz      SF
357	0.000000	0.000000	0.000000	5.595823	0.000022	0.000000	1.000000	
358	0.000000	0.000000	0.000000	6.004455	0.000023	0.000000	1.000000	
359	0.000000	0.000000	0.000000	6.285960	0.000024	0.000000	1.000000	
360	0.000000	0.000000	0.000000	6.471868	0.000025	0.000000	1.000000	
361	0.000000	0.000000	0.000000	6.691891	0.000026	0.000000	1.000000	
362	0.000000	0.000000	0.000000	6.981531	0.000027	0.000001	1.000000	
363	0.000000	0.000000	0.000000	7.210193	0.000028	0.000001	1.000000	
[EndOfFile]
